<?xml version="1.0" standalone="no"?><!-- Generator: Gravit.io --><svg xmlns="http://www.w3.org/2000/svg" xmlns:xlink="http://www.w3.org/1999/xlink" style="isolation:isolate" viewBox="0 0 468 720" width="468" height="720"><defs><clipPath id="_clipPath_gUJ35OZ3vVunyyQ12cUCUgUh6LTcUoIV"><rect width="468" height="720"/></clipPath></defs><g clip-path="url(#_clipPath_gUJ35OZ3vVunyyQ12cUCUgUh6LTcUoIV)"><g><path d=" M 332.339 153.844 C 329.158 151.045 325.34 148.145 320.886 145.346 C 314.796 141.447 309.069 138.747 304.161 136.848 L 292.525 125.26 L 272.437 105.254 L 272.437 105.854 L 272.437 105.254 L 264.438 113.253 C 262.711 113.553 261.62 114.852 261.257 116.352 L 240.623 136.848 C 235.715 138.747 229.988 141.447 223.898 145.346 C 219.444 148.145 215.626 151.045 212.445 153.844 C 232.17 152.944 252.531 152.544 272.255 151.645 L 272.255 151.844 C 292.071 152.744 312.432 152.944 332.339 153.844 Z " fill="rgb(199,178,153)" vector-effect="non-scaling-stroke" stroke-width="1" stroke="rgb(35,31,32)" stroke-linejoin="miter" stroke-linecap="butt" stroke-miterlimit="10"/><path d=" M 319.886 261.121 C 318.977 262.121 276.619 259.022 272.528 258.722 L 272.528 258.722 C 272.528 258.722 272.437 258.722 272.346 258.722 C 272.255 258.722 272.165 258.722 272.165 258.722 L 272.165 258.722 C 268.074 259.022 225.625 262.121 224.807 261.121 C 224.625 271.219 224.625 281.717 224.807 292.514 C 225.17 308.311 225.898 323.308 227.079 337.405 C 230.533 343.903 235.169 351.502 241.441 359.3 C 250.622 370.698 260.075 378.396 267.438 383.495 C 269.074 383.495 270.619 383.495 272.255 383.495 C 272.346 383.495 272.437 383.495 272.619 383.495 C 274.255 383.495 275.8 383.495 277.437 383.495 C 284.799 378.396 294.253 370.698 303.433 359.3 C 309.705 351.502 314.341 343.903 317.795 337.405 C 318.977 323.208 319.704 308.211 320.068 292.514 C 320.159 281.717 320.159 271.219 319.886 261.121 Z " fill="rgb(199,178,153)" vector-effect="non-scaling-stroke" stroke-width="1.1" stroke="rgb(35,31,32)" stroke-linejoin="miter" stroke-linecap="butt" stroke-miterlimit="10"/><g><path d=" M 323 250.25 C 335.424 220.11 350.516 189.102 343.333 158.667 C 342.97 156.467 334.611 154.044 333.884 151.944 C 333.612 151.844 333.339 151.645 333.066 151.545 C 318.068 144.546 297.161 145.046 272.437 145.246 L 272.437 145.346 C 272.437 145.346 272.346 145.346 272.346 145.346 L 272.346 145.246 C 247.531 144.946 226.716 144.546 211.717 151.545 C 211.445 151.645 211.172 151.744 210.899 151.944 C 210.081 154.044 203.606 153.8 203.333 156 C 198.572 198.21 211.107 231.105 219.122 249.686 C 223.25 259 222.849 262.667 224.17 268.819 L 272.437 266.32 L 320.704 268.819 C 321.068 262.928 321.511 256.563 323 250.25 Z " fill="rgb(199,178,153)" vector-effect="non-scaling-stroke" stroke-width="1.1" stroke="rgb(35,31,32)" stroke-linejoin="miter" stroke-linecap="butt" stroke-miterlimit="10"/><path d=" M 323.358 323.808 C 322.793 317.909 322.51 312.81 321.567 308.311 C 313.267 308.311 304.78 308.411 296.292 308.511 C 288.465 308.611 280.637 308.811 272.998 309.111 C 265.265 308.811 256.494 308.611 248.667 308.511 C 240.179 308.311 231.691 308.311 223.392 308.311 C 222.449 312.81 222.072 317.909 221.6 323.808 C 221.034 329.906 219.903 331.106 220.091 335.905 C 235.463 351.602 253.288 371.498 268.66 387.194 C 268.943 387.494 269.509 387.994 270.452 388.194 C 271.395 388.494 272.149 388.394 272.526 388.294 C 272.904 388.394 275.733 388.894 276.582 388.694 C 277.43 388.394 278.279 387.594 278.562 387.294 C 293.934 371.598 309.589 351.602 324.867 335.905 C 325.056 331.106 323.924 329.906 323.358 323.808 Z " fill="rgb(199,178,153)" vector-effect="non-scaling-stroke" stroke-width="1.1" stroke="rgb(35,31,32)" stroke-linejoin="miter" stroke-linecap="butt" stroke-miterlimit="10"/></g><path d=" M 221.977 331.506 C 220.94 334.006 217.262 344.203 216.319 347.203 C 213.018 358.3 213.018 368.498 213.678 375.797 C 231.125 382.895 249.327 391.193 266.774 398.292 C 268.566 395.892 270.735 390.493 268.943 387.894 C 267.811 386.294 265.831 384.995 264.982 384.095 C 259.795 378.596 252.533 364.999 247.441 357.301 C 243.48 351.002 238.293 335.905 221.977 331.506 Z " fill="rgb(199,178,153)" vector-effect="non-scaling-stroke" stroke-width="1.1" stroke="rgb(35,31,32)" stroke-linejoin="miter" stroke-linecap="butt" stroke-miterlimit="10"/><path d=" M 323.17 331.506 C 324.207 334.006 327.885 344.203 328.828 347.203 C 332.129 358.3 332.129 368.498 331.469 375.797 C 314.022 382.895 295.821 391.193 278.374 398.292 C 276.582 395.892 274.413 390.493 276.204 387.894 C 277.336 386.294 279.317 384.995 280.165 384.095 C 285.352 378.596 292.614 364.999 297.707 357.301 C 301.762 351.002 306.949 335.905 323.17 331.506 Z " fill="rgb(199,178,153)" vector-effect="non-scaling-stroke" stroke-width="1.1" stroke="rgb(35,31,32)" stroke-linejoin="miter" stroke-linecap="butt" stroke-miterlimit="10"/></g><g><g><path d=" M 253.966 93.539 C 253.966 93.539 250.585 85.704 248.314 83.89 C 246.044 82.076 242.886 79.808 243.281 84.003 C 243.958 87.952 243.7 86.564 243.958 87.748 C 244.13 88.141 244.068 91.797 244.364 92.818 C 244.247 94.327 245.341 95.948 245.341 96.288 C 245.341 96.288 247.989 99.621 249.075 103.816 C 249.47 105.291 248.497 105.733 250.387 108.497 C 250.486 108.61 251.572 109.064 252.559 108.383 C 253.052 108.043 253.348 107.476 253.447 107.249 C 254.2 102.264 254.953 99.776 253.966 93.539 Z " fill="rgb(199,178,153)" vector-effect="non-scaling-stroke" stroke-width="0.5" stroke="rgb(35,31,32)" stroke-linejoin="miter" stroke-linecap="butt" stroke-miterlimit="10"/><path d=" M 246.182 92.346 C 245.952 91.947 245.782 91.519 245.692 91.071 C 245.532 90.385 245.422 89.688 245.372 88.981 C 245.322 88.394 245.302 87.807 245.302 87.219 C 245.302 87.06 245.302 86.901 245.312 86.741 C 245.322 86.443 245.302 86.144 245.242 85.856 C 245.172 85.517 245.082 85.189 244.972 84.87 C 245.032 84.89 245.082 84.91 245.142 84.93 C 245.582 85.139 246.002 85.388 246.402 85.666 C 246.672 85.856 246.942 86.055 247.212 86.274 C 247.582 86.572 247.952 86.871 248.312 87.189 C 248.672 87.528 248.982 87.926 249.202 88.374 C 249.512 88.941 249.782 89.539 249.992 90.156 C 250.502 91.609 250.902 93.102 251.192 94.625 C 251.472 96.039 251.712 97.462 251.902 98.885 C 252.012 99.682 252.102 100.468 252.172 101.255 C 252.182 101.454 252.172 101.643 252.132 101.832 C 252.052 102.15 251.952 102.459 251.822 102.748 C 251.722 102.977 251.602 103.196 251.482 103.415 C 251.312 103.703 251.453 103.681 251.263 103.96 C 251.059 104.821 250.966 105.753 251.013 106.728 C 250.935 106.251 251.454 103.783 251.922 103.663 C 252.052 103.425 252.172 103.196 252.282 102.947 C 252.422 102.628 252.532 102.29 252.612 101.941 C 252.672 101.702 252.692 101.464 252.672 101.215 C 252.602 100.418 252.502 99.622 252.392 98.826 C 252.202 97.382 251.962 95.949 251.682 94.526 C 251.382 92.993 250.982 91.47 250.462 89.986 C 250.242 89.349 249.972 88.732 249.652 88.135 C 249.392 87.647 249.052 87.199 248.652 86.821 C 248.282 86.503 247.902 86.184 247.522 85.875 C 247.252 85.666 246.972 85.457 246.682 85.258 C 246.262 84.96 245.822 84.701 245.352 84.482 C 245.002 84.313 244.612 84.253 244.222 84.293 C 244.452 84.83 244.632 85.388 244.752 85.955 C 244.802 86.204 244.822 86.463 244.812 86.712 C 244.802 86.881 244.802 87.05 244.802 87.219 C 244.802 87.826 244.822 88.424 244.872 89.021 C 244.932 89.748 245.032 90.464 245.202 91.171 C 245.302 91.679 245.492 92.156 245.752 92.604 C 245.862 92.784 245.889 92.964 246.059 93.103 C 246.229 93.233 246.699 93.954 246.919 93.974 C 246.539 93.273 246.284 92.74 246.182 92.346 Z " fill="rgb(35,31,32)"/><path d=" M 251.562 95.969 L 251.712 95.939 L 251.642 95.64 L 251.492 95.68 C 251.152 95.76 250.802 95.859 250.472 95.959 C 250.252 96.029 250.042 96.098 249.832 96.188 C 249.712 96.238 249.582 96.297 249.462 96.357 C 249.382 96.407 249.302 96.457 249.222 96.506 C 249.112 96.576 249.022 96.666 248.942 96.775 C 248.892 96.845 248.852 96.934 248.852 97.024 C 248.832 97.173 248.812 97.323 248.772 97.472 C 248.722 97.711 248.692 97.96 248.682 98.199 C 248.682 98.557 248.802 98.905 249.022 99.184 C 249.252 99.463 249.452 99.751 249.632 100.07 C 249.742 100.279 249.832 100.518 249.882 100.757 C 249.952 101.105 250.052 101.454 250.182 101.792 C 250.262 101.991 250.362 102.18 250.492 102.359 C 250.602 102.529 250.792 102.638 250.992 102.658 C 251.192 102.638 251.372 102.539 251.492 102.369 C 251.854 102.047 251.674 101.158 251.622 100.942 C 251.397 100.878 251.502 100.639 251.997 100.165 C 251.591 100.351 251.341 100.651 251.278 101.036 L 251.513 101.487 C 251.413 101.755 251.432 101.971 251.252 102.19 C 251.192 102.28 251.102 102.34 250.992 102.349 C 250.892 102.34 250.792 102.28 250.742 102.19 C 250.622 102.031 250.532 101.862 250.462 101.683 C 250.342 101.364 250.242 101.036 250.172 100.697 C 250.122 100.428 250.022 100.17 249.892 99.921 C 249.712 99.592 249.492 99.284 249.252 98.995 C 249.072 98.776 248.982 98.497 248.982 98.209 C 248.992 97.98 249.022 97.761 249.072 97.542 C 249.102 97.382 249.132 97.213 249.142 97.054 C 249.152 97.014 249.162 96.984 249.182 96.954 C 249.242 96.875 249.312 96.805 249.392 96.755 C 249.462 96.706 249.532 96.666 249.602 96.626 C 249.712 96.566 249.832 96.516 249.952 96.467 C 250.152 96.387 250.352 96.307 250.552 96.248 C 250.892 96.148 251.222 96.049 251.562 95.969 Z " fill="rgb(0,0,0)"/><path d=" M 247.442 97.512 C 247.422 97.597 247.415 97.705 247.452 97.807 C 247.544 98.086 247.81 98.845 248.005 99.189 C 247.862 98.73 247.566 97.934 247.732 97.591 C 247.862 97.173 247.972 96.745 248.062 96.307 C 248.172 95.77 248.272 95.232 248.352 94.685 C 248.392 94.436 248.412 94.187 248.412 93.938 C 248.422 93.729 248.382 93.53 248.302 93.341 C 248.212 93.152 248.112 92.973 247.992 92.813 C 247.642 92.306 247.342 91.778 247.072 91.231 C 246.992 91.071 246.922 90.892 246.872 90.723 C 246.832 90.594 246.812 90.474 246.802 90.345 C 246.792 90.215 246.802 90.076 246.842 89.947 C 246.872 89.837 246.932 89.728 247.002 89.628 C 247.082 89.529 247.182 89.429 247.292 89.359 C 247.462 89.25 247.642 89.16 247.832 89.091 C 248.002 89.031 248.067 88.909 248.247 88.879 C 248.497 88.829 248.536 88.769 248.786 88.739 L 249.097 88.657 L 249.401 88.663 L 249.072 88.533 C 248.812 88.563 248.552 88.603 248.292 88.653 C 248.102 88.692 247.912 88.742 247.732 88.812 C 247.522 88.882 247.312 88.991 247.122 89.111 C 246.982 89.2 246.862 89.32 246.762 89.449 C 246.662 89.578 246.592 89.718 246.552 89.867 C 246.512 90.026 246.492 90.196 246.502 90.365 C 246.512 90.514 246.532 90.663 246.582 90.803 C 246.642 91.002 246.712 91.181 246.802 91.36 C 247.072 91.928 247.392 92.465 247.742 92.983 C 247.852 93.132 247.952 93.291 248.032 93.46 C 248.092 93.61 248.122 93.769 248.112 93.928 C 248.112 94.167 248.092 94.406 248.052 94.635 C 247.972 95.173 247.882 95.71 247.762 96.248 C 247.682 96.676 247.572 97.094 247.442 97.512 Z " fill="rgb(0,0,0)"/></g><g><path d=" M 294.844 93.469 C 294.844 93.469 298.225 85.598 300.495 83.776 C 302.765 81.953 305.924 79.675 305.529 83.889 C 304.852 87.856 305.109 86.462 304.852 87.652 C 304.68 88.046 304.741 91.719 304.445 92.744 C 304.562 94.26 303.469 95.889 303.469 96.23 C 303.469 96.23 300.82 99.579 299.734 103.794 C 299.34 105.275 300.312 105.719 298.422 108.496 C 298.324 108.61 297.238 109.065 296.251 108.382 C 295.757 108.04 295.461 107.47 295.363 107.243 C 294.609 102.234 293.857 99.734 294.844 93.469 Z " fill="rgb(199,178,153)" vector-effect="non-scaling-stroke" stroke-width="0.5" stroke="rgb(35,31,32)" stroke-linejoin="miter" stroke-linecap="butt" stroke-miterlimit="10"/><path d=" M 302.628 92.27 C 302.858 91.87 303.028 91.44 303.118 90.99 C 303.278 90.3 303.388 89.6 303.438 88.89 C 303.488 88.3 303.508 87.71 303.508 87.12 C 303.508 86.96 303.508 86.8 303.498 86.64 C 303.488 86.34 303.508 86.04 303.568 85.75 C 303.638 85.41 303.728 85.08 303.838 84.76 C 303.778 84.78 303.728 84.8 303.668 84.82 C 303.228 85.03 302.808 85.28 302.408 85.56 C 302.138 85.75 301.868 85.95 301.598 86.17 C 301.228 86.47 300.858 86.77 300.498 87.09 C 300.138 87.43 299.828 87.83 299.608 88.28 C 299.298 88.85 299.028 89.45 298.818 90.07 C 298.308 91.53 297.908 93.03 297.618 94.56 C 297.338 95.98 297.098 97.41 296.908 98.84 C 296.798 99.64 296.708 100.43 296.638 101.22 C 296.628 101.42 296.638 101.61 296.678 101.8 C 296.758 102.12 296.858 102.43 296.988 102.72 C 297.088 102.95 297.208 103.17 297.328 103.39 C 297.498 103.68 297.357 103.658 297.547 103.938 C 297.75 104.803 297.844 105.74 297.797 106.719 C 297.875 106.239 297.355 103.76 296.888 103.64 C 296.758 103.4 296.638 103.17 296.528 102.92 C 296.388 102.6 296.278 102.26 296.198 101.91 C 296.138 101.67 296.118 101.43 296.138 101.18 C 296.208 100.38 296.308 99.58 296.418 98.78 C 296.608 97.33 296.848 95.89 297.128 94.46 C 297.428 92.92 297.828 91.39 298.348 89.9 C 298.568 89.26 298.838 88.64 299.158 88.04 C 299.418 87.55 299.758 87.1 300.158 86.72 C 300.528 86.4 300.908 86.08 301.288 85.77 C 301.558 85.56 301.838 85.35 302.128 85.15 C 302.548 84.85 302.988 84.59 303.458 84.37 C 303.808 84.2 304.198 84.14 304.588 84.18 C 304.358 84.72 304.178 85.28 304.058 85.85 C 304.008 86.1 303.988 86.36 303.998 86.61 C 304.008 86.78 304.008 86.95 304.008 87.12 C 304.008 87.73 303.988 88.33 303.938 88.93 C 303.878 89.66 303.778 90.38 303.608 91.09 C 303.508 91.6 303.318 92.08 303.058 92.53 C 302.948 92.71 302.92 92.891 302.75 93.031 C 302.58 93.161 302.111 93.886 301.891 93.906 C 302.27 93.202 302.526 92.666 302.628 92.27 Z " fill="rgb(35,31,32)"/><path d=" M 297.248 95.91 L 297.098 95.88 L 297.168 95.58 L 297.318 95.62 C 297.658 95.7 298.008 95.8 298.338 95.9 C 298.558 95.97 298.768 96.04 298.978 96.13 C 299.098 96.18 299.228 96.24 299.348 96.3 C 299.428 96.35 299.508 96.4 299.588 96.45 C 299.698 96.52 299.788 96.61 299.868 96.72 C 299.918 96.79 299.958 96.88 299.958 96.97 C 299.978 97.12 299.998 97.27 300.038 97.42 C 300.088 97.66 300.118 97.91 300.128 98.15 C 300.128 98.51 300.008 98.86 299.788 99.14 C 299.558 99.42 299.358 99.71 299.178 100.03 C 299.068 100.24 298.978 100.48 298.928 100.72 C 298.858 101.07 298.758 101.42 298.628 101.76 C 298.548 101.96 298.448 102.15 298.318 102.33 C 298.208 102.5 298.018 102.61 297.818 102.63 C 297.618 102.61 297.438 102.51 297.318 102.34 C 296.956 102.016 297.136 101.123 297.188 100.906 C 297.412 100.842 297.307 100.602 296.813 100.125 C 297.219 100.313 297.468 100.614 297.531 101 L 297.297 101.453 C 297.397 101.723 297.378 101.94 297.558 102.16 C 297.618 102.25 297.708 102.31 297.818 102.32 C 297.918 102.31 298.018 102.25 298.068 102.16 C 298.188 102 298.278 101.83 298.348 101.65 C 298.468 101.33 298.568 101 298.638 100.66 C 298.688 100.39 298.788 100.13 298.918 99.88 C 299.098 99.55 299.318 99.24 299.558 98.95 C 299.738 98.73 299.828 98.45 299.828 98.16 C 299.818 97.93 299.788 97.71 299.738 97.49 C 299.708 97.33 299.678 97.16 299.668 97 C 299.658 96.96 299.648 96.93 299.628 96.9 C 299.568 96.82 299.498 96.75 299.418 96.7 C 299.348 96.65 299.278 96.61 299.208 96.57 C 299.098 96.51 298.978 96.46 298.858 96.41 C 298.658 96.33 298.458 96.25 298.258 96.19 C 297.918 96.09 297.588 95.99 297.248 95.91 Z " fill="rgb(0,0,0)"/><path d=" M 301.368 97.46 C 301.387 97.545 301.394 97.654 301.358 97.756 C 301.265 98.037 301 98.8 300.804 99.145 C 300.947 98.684 301.244 97.884 301.078 97.54 C 300.948 97.12 300.838 96.69 300.748 96.25 C 300.638 95.71 300.538 95.17 300.458 94.62 C 300.418 94.37 300.398 94.12 300.398 93.87 C 300.388 93.66 300.428 93.46 300.508 93.27 C 300.598 93.08 300.698 92.9 300.818 92.74 C 301.168 92.23 301.468 91.7 301.738 91.15 C 301.818 90.99 301.888 90.81 301.938 90.64 C 301.978 90.51 301.998 90.39 302.008 90.26 C 302.018 90.13 302.008 89.99 301.968 89.86 C 301.938 89.75 301.878 89.64 301.808 89.54 C 301.728 89.44 301.628 89.34 301.518 89.27 C 301.348 89.16 301.168 89.07 300.978 89 C 300.808 88.94 300.743 88.817 300.563 88.787 C 300.313 88.737 300.273 88.676 300.023 88.646 L 299.713 88.564 L 299.408 88.57 L 299.738 88.44 C 299.998 88.47 300.258 88.51 300.518 88.56 C 300.708 88.6 300.898 88.65 301.078 88.72 C 301.288 88.79 301.498 88.9 301.688 89.02 C 301.828 89.11 301.948 89.23 302.048 89.36 C 302.148 89.49 302.218 89.63 302.258 89.78 C 302.298 89.94 302.318 90.11 302.308 90.28 C 302.298 90.43 302.278 90.58 302.228 90.72 C 302.168 90.92 302.098 91.1 302.008 91.28 C 301.738 91.85 301.418 92.39 301.068 92.91 C 300.958 93.06 300.858 93.22 300.778 93.39 C 300.718 93.54 300.688 93.7 300.698 93.86 C 300.698 94.1 300.718 94.34 300.758 94.57 C 300.838 95.11 300.928 95.65 301.048 96.19 C 301.128 96.62 301.238 97.04 301.368 97.46 Z " fill="rgb(0,0,0)"/></g><g><path d=" M 251.5 98.625 L 296.75 98.625 C 294.552 112.578 294.562 125.546 296.75 137.5 C 279.5 159.833 264.427 159.843 251.5 137.5 C 253.837 125.083 253.847 112.135 251.5 98.625 Z " fill="rgb(235,235,235)"/><path d=" M 251.5 98.625 L 296.75 98.625 C 294.552 112.578 294.562 125.546 296.75 137.5 C 279.5 159.833 264.427 159.843 251.5 137.5 C 253.837 125.083 253.847 112.135 251.5 98.625 Z " fill="rgb(199,178,153)"/><g style="isolation: isolate;"><path d=" M 251.5 98.625 L 296.75 98.625 C 294.552 112.578 294.562 125.546 296.75 137.5 C 279.5 159.833 264.427 159.843 251.5 137.5 C 253.837 125.083 253.847 112.135 251.5 98.625 Z " fill="none" vector-effect="non-scaling-stroke" stroke-width="1" stroke="rgb(0,0,0)" stroke-linejoin="miter" stroke-linecap="square" stroke-miterlimit="3"/></g><g/><path d=" M 304.034 72.489 C 304.034 70.1 303.526 68.078 303.222 66.792 C 302.409 63.943 300.682 58.98 296.11 54.201 C 292.403 50.341 283.91 45.375 275.25 45.375 C 266.59 45.375 257.762 50.341 254.054 54.201 C 249.482 58.888 247.755 63.851 246.943 66.792 C 246.536 68.078 246.13 70.1 246.13 72.489 C 246.13 75.43 246.638 76.993 247.146 80.117 C 247.958 85.448 246.841 84.896 247.654 89.307 C 247.958 94.362 249.787 95.097 250.498 100.703 C 250.701 101.99 250.6 102.357 250.904 104.563 C 251.311 107.596 251.819 110.72 252.123 112.191 C 252.631 114.58 254.46 120.002 261.774 126.711 C 262.485 127.814 263.704 129.468 265.939 130.939 C 269.8 133.328 273.761 133.144 275.082 133.052 C 275.082 133.052 275.082 133.052 275.082 133.052 C 275.184 133.052 275.285 133.052 275.387 133.052 L 275.387 133.052 C 276.707 133.144 280.669 133.328 284.53 130.939 C 286.765 129.56 288.085 127.814 288.695 126.711 C 296.009 120.002 297.736 114.58 298.345 112.191 C 298.65 110.812 299.158 107.596 299.564 104.563 C 299.869 102.449 299.768 102.082 299.971 100.703 C 300.682 95.097 302.612 94.362 302.815 89.307 C 303.526 84.896 302.51 85.356 303.323 80.117 C 303.526 77.085 304.034 75.522 304.034 72.489 Z " fill="rgb(199,178,153)" vector-effect="non-scaling-stroke" stroke-width="1" stroke="rgb(35,31,32)" stroke-linejoin="miter" stroke-linecap="butt" stroke-miterlimit="10"/><g/><g><g/></g><g><g/><g><path d=" M 285.668 116.266 C 284.475 115.666 284.848 115.797 282.972 115.959 C 281.333 116.359 277.606 116.459 276.712 116.459 L 276.712 116.459 C 276.712 116.459 276.712 116.459 276.563 116.459 C 276.414 116.459 276.414 116.459 276.414 116.459 L 276.414 116.459 C 275.371 116.459 271.794 116.459 270.154 115.959 C 268.216 115.459 266.875 116.559 265.534 117.059 C 265.086 117.259 264.341 117.459 263.447 117.559 C 265.086 117.359 267.024 117.059 267.769 116.759 C 267.785 115.734 275.065 116.91 275.363 116.91 C 275.512 116.91 275.71 116.805 276.306 116.805 L 276.516 116.787 C 276.516 116.787 276.642 116.778 276.791 116.778 C 276.94 116.778 277.053 116.734 277.053 116.734 L 276.909 116.734 C 277.356 116.734 278.203 116.659 278.501 116.659 C 278.799 116.659 285.276 115.492 285.418 116.348 C 286.163 116.648 285.33 116.124 286.969 116.324 C 286.075 116.224 286.115 116.466 285.668 116.266 Z " fill="rgb(35,31,32)" vector-effect="non-scaling-stroke" stroke-width="0.3" stroke="rgb(0,0,0)" stroke-linejoin="miter" stroke-linecap="butt" stroke-miterlimit="4"/><path d=" M 274.712 109.86 C 274.56 110.16 274.408 110.46 274.408 110.86 C 274.256 111.16 274.256 111.46 274.256 111.859 C 274.256 112.159 274.256 112.459 274.408 112.859 C 274.56 113.159 274.712 113.459 275.017 113.759 C 274.56 113.559 274.256 113.259 274.104 112.959 C 273.952 112.659 273.8 112.259 273.8 111.959 C 273.8 111.06 274.104 110.36 274.712 109.86 Z " fill="rgb(35,31,32)" vector-effect="non-scaling-stroke" stroke-width="0.3" stroke="rgb(0,0,0)" stroke-linejoin="miter" stroke-linecap="butt" stroke-miterlimit="4"/><path d=" M 267.375 118.912 C 267.794 118.912 268.213 118.912 268.528 118.959 C 268.947 119.006 269.366 119.006 269.681 119.146 C 269.89 119.286 270.1 119.426 270.415 119.566 C 270.519 119.66 270.624 119.706 270.834 119.753 L 271.253 119.94 C 271.882 120.174 272.511 120.36 273.244 120.501 C 273.559 120.547 273.978 120.594 274.397 120.641 C 274.817 120.641 275.236 120.641 275.55 120.641 C 276.389 120.641 277.122 120.641 277.856 120.501 C 278.59 120.407 279.323 120.22 279.848 119.94 C 280.162 119.8 280.476 119.706 280.791 119.613 C 281.105 119.519 281.525 119.426 281.839 119.333 C 282.153 119.239 282.153 119.006 282.363 118.865 C 282.468 118.772 282.468 118.678 282.677 118.632 C 282.887 118.585 282.926 118.486 283.031 118.533 C 282.822 118.486 282.782 118.585 282.677 118.632 C 282.573 118.678 282.468 118.772 282.468 118.865 C 282.363 119.052 282.363 119.239 282.049 119.379 C 281.734 119.519 281.42 119.566 281 119.66 C 280.686 119.753 280.372 119.893 280.057 119.987 C 279.533 120.22 278.799 120.454 278.066 120.547 C 277.332 120.641 276.494 120.688 275.655 120.688 C 275.236 120.688 274.817 120.688 274.397 120.688 C 273.978 120.688 273.559 120.641 273.244 120.547 C 272.511 120.407 271.777 120.22 271.253 119.94 L 270.834 119.753 C 270.624 119.706 270.519 119.613 270.415 119.566 C 270.205 119.426 269.995 119.239 269.786 119.146 C 269.576 118.959 269.157 118.959 268.738 118.959 C 268.213 118.912 267.794 118.912 267.375 118.912 Z " fill="rgb(35,31,32)" vector-effect="non-scaling-stroke" stroke-width="0.3" stroke="rgb(0,0,0)" stroke-linejoin="miter" stroke-linecap="butt" stroke-miterlimit="4"/><path d=" M 271.042 89.558 C 271.042 90.658 271.042 91.758 270.942 92.857 C 270.942 93.357 270.842 93.957 270.942 94.457 C 271.042 94.957 271.142 95.557 271.342 96.057 C 271.442 96.556 271.542 97.156 271.642 97.656 C 271.742 97.956 271.742 98.156 271.742 98.456 C 271.742 98.556 271.742 98.756 271.742 98.856 C 271.742 99.056 271.642 99.156 271.642 99.256 C 271.542 99.756 271.442 100.356 271.342 100.856 C 271.242 101.355 271.142 101.955 271.342 102.455 C 271.142 101.955 271.142 101.355 271.142 100.856 C 271.142 100.256 271.242 99.756 271.342 99.156 C 271.542 98.656 271.342 98.156 271.242 97.556 C 271.142 97.056 271.042 96.457 270.842 95.957 C 270.742 95.457 270.542 94.857 270.542 94.357 C 270.542 93.757 270.542 93.257 270.642 92.657 C 270.842 91.758 270.942 90.658 271.042 89.558 L 271.042 89.558 Z  M 269.342 101.255 C 269.342 101.255 266.843 101.555 267.843 104.055 C 268.943 106.554 269.642 107.354 270.342 106.954 C 271.042 106.554 271.242 106.254 271.842 106.654 C 272.442 107.054 272.842 107.654 274.141 107.854 C 275.441 108.054 276.341 107.954 276.841 107.354 C 277.341 106.754 277.041 105.555 278.141 105.954 C 279.24 106.354 280.84 106.254 280.94 104.855 C 281.14 103.455 280.64 107.154 279.34 107.954 C 278.041 108.754 278.94 107.254 278.64 107.054 C 278.341 106.854 278.74 106.254 278.74 106.254 C 278.74 106.254 278.141 106.454 277.841 106.454 C 277.641 106.454 277.341 106.454 277.341 106.454 C 277.341 106.454 277.641 108.754 275.941 108.954 C 274.341 109.154 274.141 108.754 273.742 108.654 C 273.342 108.454 275.041 109.354 275.841 108.754 C 276.741 108.154 275.941 108.054 275.941 108.054 C 275.941 108.054 273.342 108.054 273.042 107.954 C 272.742 107.854 272.142 106.754 271.742 107.154 C 271.342 107.554 270.842 107.654 270.642 107.454 C 270.442 107.254 270.242 107.354 270.242 107.354 C 270.242 107.354 268.943 107.254 268.343 105.655 C 267.843 103.955 266.643 101.455 269.342 101.255 L 269.342 101.255 Z  M 279.04 101.455 C 279.54 101.555 279.94 101.855 280.24 102.155 C 280.44 102.355 280.54 102.455 280.74 102.655 C 280.84 102.855 280.94 103.155 280.84 103.355 C 280.84 103.155 280.64 102.955 280.54 102.755 C 280.34 102.555 280.24 102.455 280.04 102.255 C 279.74 102.055 279.34 101.855 279.04 101.455 Z " fill-rule="evenodd" fill="rgb(35,31,32)"/><path d=" M 293.181 88.158 C 292.967 87.858 291.256 85.859 288.368 85.559 C 284.732 85.259 282.486 87.958 282.379 88.058 C 283.341 88.358 284.411 88.758 285.373 89.058 L 288.154 89.358 L 291.79 89.058 L 293.181 88.158 Z " fill="rgb(185,185,185)"/><g opacity="0.35"><path d=" M 292.401 88.674 L 292.064 87.868 C 291.617 87.465 290.945 86.983 289.939 86.662 C 287.815 86.101 285.247 86.59 283.239 87.965 C 284.133 88.367 286.034 89.089 288.604 89.084 C 290.168 89.162 291.62 88.917 292.401 88.674 Z " fill="rgb(255,255,255)"/></g><ellipse vector-effect="non-scaling-stroke" cx="287.2550276530167" cy="86.68056397529506" rx="2.6736838995717562" ry="2.49946592608417" fill="rgb(96,56,19)" stroke-width="0.2" stroke="rgb(35,31,32)" stroke-linejoin="miter" stroke-linecap="butt" stroke-miterlimit="10"/><path d=" M 287.255 84.281 C 287.576 84.281 287.897 84.481 288.111 84.681 C 288.431 84.781 288.752 84.881 288.966 85.081 C 289.18 85.281 289.287 85.681 289.394 85.881 C 289.501 86.181 289.394 86.481 289.394 86.781 C 289.394 87.08 289.287 87.28 289.18 87.58 C 289.073 87.88 289.073 88.18 288.859 88.38 C 288.645 88.58 288.218 88.58 288.004 88.68 C 287.79 88.78 287.469 88.78 287.148 88.78 C 286.827 88.78 286.613 88.78 286.399 88.68 C 286.079 88.58 285.651 88.68 285.437 88.48 C 285.223 88.28 285.437 87.88 285.33 87.58 C 285.223 87.28 284.902 87.18 284.902 86.881 C 284.902 86.581 284.795 86.281 284.902 85.981 C 285.009 85.681 285.544 85.681 285.758 85.481 C 285.972 85.281 285.972 84.781 286.293 84.681 C 286.506 84.381 286.934 84.281 287.255 84.281 Z  M 287.255 87.98 C 287.576 87.98 287.79 88.08 288.004 87.98 C 288.218 87.88 288.218 87.58 288.431 87.38 C 288.538 87.18 288.752 86.98 288.752 86.781 C 288.752 86.481 288.859 86.281 288.645 85.981 C 288.538 85.781 288.325 85.481 288.111 85.281 C 287.897 85.181 287.576 85.281 287.255 85.281 C 286.934 85.281 286.613 85.081 286.399 85.281 C 286.186 85.381 285.758 85.581 285.651 85.881 C 285.544 86.081 285.437 86.481 285.437 86.781 C 285.437 87.08 285.865 87.28 285.972 87.48 C 286.079 87.68 286.079 88.18 286.293 88.28 C 286.506 88.38 286.934 87.98 287.255 87.98 Z " fill="rgb(255,255,255)" fill-opacity="0.5"/><path d=" M 287.148 84.781 C 287.469 84.781 287.79 84.981 288.004 85.081 C 288.325 85.181 288.752 85.281 288.859 85.381 C 289.073 85.581 289.18 85.981 289.18 86.281 C 289.18 86.481 288.966 86.681 288.859 86.881 C 288.752 87.08 288.645 87.28 288.431 87.48 C 288.325 87.68 288.325 87.98 288.218 88.18 C 288.004 88.38 287.683 88.38 287.576 88.48 C 287.362 88.58 287.255 88.58 286.934 88.58 C 286.72 88.58 286.613 88.58 286.399 88.48 C 286.186 88.38 285.865 88.48 285.651 88.28 C 285.544 88.08 285.651 87.78 285.544 87.58 C 285.437 87.38 285.116 87.28 285.116 87.08 C 285.009 86.881 284.795 86.581 284.795 86.481 C 284.795 86.181 285.223 86.081 285.437 85.781 C 285.651 85.581 285.758 85.181 286.079 85.081 C 286.399 84.881 286.827 84.781 287.148 84.781 Z  M 287.041 88.18 C 287.255 88.18 287.469 88.28 287.683 88.08 C 287.897 87.98 287.897 87.68 288.111 87.48 C 288.325 87.28 288.538 87.18 288.645 86.881 C 288.752 86.581 288.966 86.381 288.966 86.181 C 288.966 85.981 288.859 85.681 288.645 85.581 C 288.431 85.481 288.111 85.581 287.897 85.481 C 287.683 85.381 287.469 85.181 287.148 85.181 C 286.934 85.181 286.613 85.081 286.399 85.181 C 286.079 85.281 285.865 85.381 285.651 85.481 C 285.437 85.681 285.544 85.981 285.544 86.181 C 285.544 86.381 285.223 86.681 285.33 86.98 C 285.437 87.18 285.758 87.38 285.865 87.58 C 285.972 87.78 286.293 87.88 286.506 87.98 C 286.72 88.18 286.72 88.18 287.041 88.18 Z " fill="rgb(255,255,255)"/><ellipse vector-effect="non-scaling-stroke" cx="287.2550276530168" cy="86.680563975295" rx="0.9625262038458118" ry="0.8998077333903041" fill="rgb(35,31,32)"/><ellipse vector-effect="non-scaling-stroke" cx="287.97091399134746" cy="86.23046875" rx="0.37283600865259814" ry="0.39453125" fill="rgb(255,255,255)"/><ellipse vector-effect="non-scaling-stroke" cx="285.5852385749358" cy="87.66308593750001" rx="1.2371605922409685" ry="0.9833984375" fill="rgb(255,255,255)"/><path d=" M 293.348 88.223 C 289.826 84.497 286.088 84.459 282.197 88.047 C 283.407 85.652 285.326 84.261 287.989 83.846 C 290.821 84.585 292.586 86.064 293.348 88.223 Z " fill="rgb(199,178,153)"/><path d=" M 293.181 88.124 C 292.967 87.816 291.256 85.76 288.368 85.452 C 284.732 85.143 282.486 87.919 282.379 88.022 C 283.341 88.33 284.411 88.741 285.373 89.05 L 288.154 89.358 L 291.79 89.05 L 293.181 88.124 Z " fill="none" vector-effect="non-scaling-stroke" stroke-width="0.2" stroke="rgb(35,31,32)" stroke-linejoin="miter" stroke-linecap="butt" stroke-miterlimit="10"/><path d=" M 298.16 87.258 C 297.903 87.358 297.775 87.158 297.517 87.059 L 297.517 87.059 C 296.875 85.859 295.718 84.759 294.175 83.959 C 292.761 83.159 290.833 82.859 289.162 82.959 C 287.362 83.059 285.691 83.459 284.149 84.059 C 282.606 84.659 281.192 85.459 279.907 86.259 L 279.907 86.259 L 279.907 86.259 C 279.778 86.459 279.65 86.659 279.393 86.659 C 279.136 86.659 278.879 86.559 278.75 86.459 C 278.879 86.659 279.136 86.759 279.393 86.759 C 279.65 86.759 279.907 86.559 280.035 86.359 L 280.035 86.359 C 281.449 85.659 282.863 84.959 284.406 84.359 C 285.948 83.859 287.62 83.459 289.291 83.359 C 290.962 83.259 292.633 83.559 294.047 84.259 C 295.461 84.959 296.746 85.859 297.517 87.059 L 297.517 87.059 L 297.517 87.059 C 297.775 87.258 298.032 87.358 298.16 87.258 Z " fill="rgb(35,31,32)" vector-effect="non-scaling-stroke" stroke-width="0.3" stroke="rgb(0,0,0)" stroke-linejoin="miter" stroke-linecap="butt" stroke-miterlimit="4"/><path d=" M 279.441 83.959 C 280.455 84.159 282.146 84.359 284.174 83.959 C 285.64 83.659 286.654 83.259 287.443 82.859 C 288.457 82.46 289.922 81.96 291.613 81.66 C 292.965 81.46 294.205 81.46 295.107 81.46 C 295.445 81.56 296.797 82.06 298.263 81.56 C 299.164 81.26 299.728 80.76 299.953 80.46 C 299.277 80.06 298.375 79.66 297.135 79.26 C 295.558 78.86 294.205 78.86 293.303 78.86 C 292.515 78.86 291.162 78.86 289.584 79.26 C 287.894 79.66 286.879 80.16 283.385 81.76 C 282.822 82.36 281.357 83.059 279.441 83.959 Z " fill="rgb(66,33,11)" vector-effect="non-scaling-stroke" stroke-width="0.5" stroke="rgb(35,31,32)" stroke-linejoin="miter" stroke-linecap="butt" stroke-miterlimit="10"/><path d=" M 256.73 88.158 C 256.943 87.858 258.655 85.859 261.542 85.559 C 265.178 85.259 267.424 87.958 267.531 88.058 C 266.569 88.358 265.499 88.758 264.537 89.058 L 261.756 89.358 L 258.12 89.058 L 256.73 88.158 Z " fill="rgb(185,185,185)"/><g opacity="0.35"><path d=" M 257.509 88.674 L 257.846 87.868 C 258.294 87.465 258.965 86.983 259.971 86.662 C 262.095 86.101 264.663 86.59 266.671 87.965 C 265.777 88.367 263.876 89.089 261.306 89.084 C 259.742 89.162 258.29 88.917 257.509 88.674 Z " fill="rgb(255,255,255)"/></g><ellipse vector-effect="non-scaling-stroke" cx="262.65510898271344" cy="86.68056397529506" rx="2.6736838995717562" ry="2.49946592608417" fill="rgb(96,56,19)" stroke-width="0.2" stroke="rgb(35,31,32)" stroke-linejoin="miter" stroke-linecap="butt" stroke-miterlimit="10"/><path d=" M 262.655 84.281 C 262.334 84.281 262.013 84.481 261.8 84.681 C 261.479 84.781 261.158 84.881 260.944 85.081 C 260.73 85.281 260.623 85.681 260.516 85.881 C 260.409 86.181 260.516 86.481 260.516 86.781 C 260.516 87.08 260.623 87.28 260.73 87.58 C 260.837 87.88 260.837 88.18 261.051 88.38 C 261.265 88.58 261.693 88.58 261.906 88.68 C 262.12 88.78 262.441 88.78 262.762 88.78 C 263.083 88.78 263.297 88.78 263.511 88.68 C 263.832 88.58 264.259 88.68 264.473 88.48 C 264.687 88.28 264.473 87.88 264.58 87.58 C 264.687 87.28 265.008 87.18 265.008 86.881 C 265.008 86.581 265.115 86.281 265.008 85.981 C 264.901 85.681 264.366 85.681 264.152 85.481 C 263.938 85.281 263.938 84.781 263.618 84.681 C 263.404 84.381 262.976 84.281 262.655 84.281 Z  M 262.655 87.98 C 262.334 87.98 262.12 88.08 261.906 87.98 C 261.693 87.88 261.693 87.58 261.479 87.38 C 261.372 87.18 261.158 86.98 261.158 86.781 C 261.158 86.481 261.051 86.281 261.265 85.981 C 261.372 85.781 261.586 85.481 261.8 85.281 C 262.013 85.181 262.334 85.281 262.655 85.281 C 262.976 85.281 263.297 85.081 263.511 85.281 C 263.725 85.381 264.152 85.581 264.259 85.881 C 264.366 86.081 264.473 86.481 264.473 86.781 C 264.473 87.08 264.045 87.28 263.938 87.48 C 263.832 87.68 263.832 88.18 263.618 88.28 C 263.404 88.38 262.976 87.98 262.655 87.98 Z " fill="rgb(255,255,255)" fill-opacity="0.5"/><path d=" M 262.762 84.781 C 262.441 84.781 262.12 84.981 261.906 85.081 C 261.586 85.181 261.158 85.281 261.051 85.381 C 260.837 85.581 260.73 85.981 260.73 86.281 C 260.73 86.481 260.944 86.681 261.051 86.881 C 261.158 87.08 261.265 87.28 261.479 87.48 C 261.586 87.68 261.586 87.98 261.693 88.18 C 261.906 88.38 262.227 88.38 262.334 88.48 C 262.548 88.58 262.655 88.58 262.976 88.58 C 263.19 88.58 263.297 88.58 263.511 88.48 C 263.725 88.38 264.045 88.48 264.259 88.28 C 264.366 88.08 264.259 87.78 264.366 87.58 C 264.473 87.38 264.794 87.28 264.794 87.08 C 264.901 86.881 265.115 86.581 265.115 86.481 C 265.115 86.181 264.687 86.081 264.473 85.781 C 264.259 85.581 264.152 85.181 263.832 85.081 C 263.511 84.881 263.083 84.781 262.762 84.781 Z  M 262.869 88.18 C 262.655 88.18 262.441 88.28 262.227 88.08 C 262.013 87.98 262.013 87.68 261.8 87.48 C 261.586 87.28 261.372 87.18 261.265 86.881 C 261.158 86.581 260.944 86.381 260.944 86.181 C 260.944 85.981 261.051 85.681 261.265 85.581 C 261.479 85.481 261.8 85.581 262.013 85.481 C 262.227 85.381 262.441 85.181 262.762 85.181 C 262.976 85.181 263.297 85.081 263.511 85.181 C 263.832 85.281 264.045 85.381 264.259 85.481 C 264.473 85.681 264.366 85.981 264.366 86.181 C 264.366 86.381 264.687 86.681 264.58 86.98 C 264.473 87.18 264.152 87.38 264.045 87.58 C 263.938 87.78 263.618 87.88 263.404 87.98 C 263.19 88.18 263.19 88.18 262.869 88.18 Z " fill="rgb(255,255,255)"/><ellipse vector-effect="non-scaling-stroke" cx="262.65510898271344" cy="86.680563975295" rx="0.9625262038458118" ry="0.8998077333903041" fill="rgb(35,31,32)"/><ellipse vector-effect="non-scaling-stroke" cx="259.5748980607944" cy="87.69433593750001" rx="1.2371605922409685" ry="0.9833984375" fill="rgb(255,255,255)"/><ellipse vector-effect="non-scaling-stroke" cx="263.6173263874016" cy="86.1982421875" rx="0.43583891884810555" ry="0.3857421875000142" fill="rgb(255,255,255)"/><path d=" M 256.562 88.223 C 260.084 84.497 263.822 84.459 267.713 88.047 C 266.503 85.652 264.584 84.261 261.921 83.846 C 259.089 84.585 257.324 86.064 256.562 88.223 Z " fill="rgb(199,178,153)"/><path d=" M 256.73 88.124 C 256.943 87.816 258.655 85.76 261.542 85.452 C 265.178 85.143 267.424 87.919 267.531 88.022 C 266.569 88.33 265.499 88.741 264.537 89.05 L 261.756 89.358 L 258.12 89.05 L 256.73 88.124 Z " fill="none" vector-effect="non-scaling-stroke" stroke-width="0.2" stroke="rgb(35,31,32)" stroke-linejoin="miter" stroke-linecap="butt" stroke-miterlimit="10"/><path d=" M 250.172 82.927 L 253.242 80.428 C 254.068 80.028 255.603 79.428 257.729 79.428 C 259.146 79.428 260.326 79.728 261.035 79.928 C 262.216 80.128 263.751 80.428 265.522 81.228 C 267.765 82.228 269.418 83.427 270.245 84.327 C 270.481 84.727 270.481 85.127 270.245 85.327 C 270.009 85.627 269.182 85.527 268.474 84.927 C 267.647 84.427 266.702 83.827 265.286 83.327 C 263.514 82.627 261.861 82.428 260.799 82.328 C 259.618 82.228 258.555 82.228 257.729 82.228 C 257.02 82.228 256.194 82.328 255.249 82.428 C 254.659 82.527 254.186 82.627 253.832 82.627 C 253.36 82.827 252.651 83.027 251.825 83.027 C 251.116 83.127 250.526 83.027 250.172 82.927 Z " fill="rgb(66,33,11)" vector-effect="non-scaling-stroke" stroke-width="0.5" stroke="rgb(35,31,32)" stroke-linejoin="miter" stroke-linecap="butt" stroke-miterlimit="10"/><ellipse vector-effect="non-scaling-stroke" cx="262.38964843749994" cy="86.53889343719084" rx="0.4228515625" ry="0.2931378128091069" fill="rgb(255,255,255)"/><path d=" M 251.75 87.258 C 252.007 87.358 252.136 87.158 252.393 87.059 L 252.393 87.059 C 253.035 85.859 254.192 84.759 255.735 83.959 C 257.149 83.159 259.077 82.859 260.748 82.959 C 262.548 83.059 264.219 83.459 265.761 84.059 C 267.304 84.659 268.718 85.459 270.003 86.259 L 270.003 86.259 L 270.003 86.259 C 270.132 86.459 270.26 86.659 270.517 86.659 C 270.775 86.659 271.032 86.559 271.16 86.459 C 271.032 86.659 270.775 86.759 270.517 86.759 C 270.26 86.759 270.003 86.559 269.875 86.359 L 269.875 86.359 C 268.461 85.659 267.047 84.959 265.504 84.359 C 263.962 83.859 262.291 83.459 260.62 83.359 C 258.948 83.259 257.277 83.559 255.863 84.259 C 254.449 84.959 253.164 85.859 252.393 87.059 L 252.393 87.059 L 252.393 87.059 C 252.136 87.258 251.879 87.358 251.75 87.258 Z " fill="rgb(35,31,32)" vector-effect="non-scaling-stroke" stroke-width="0.3" stroke="rgb(0,0,0)" stroke-linejoin="miter" stroke-linecap="butt" stroke-miterlimit="4"/></g></g></g></g><g><g><g><path d=" M 217.587 180.538 C 217.887 183.938 219.786 203.233 206.889 210.832 C 201.69 213.931 193.692 215.431 187.593 211.832 C 177.895 206.133 179.395 189.936 180.295 181.138 C 180.795 175.639 181.394 169.941 185.494 164.142 C 186.393 162.942 193.992 152.244 202.49 153.444 C 212.288 154.944 216.687 171.54 217.587 180.538 Z " fill="rgb(199,178,153)" vector-effect="non-scaling-stroke" stroke-width="1.1" stroke="rgb(35,31,32)" stroke-linejoin="miter" stroke-linecap="butt" stroke-miterlimit="10"/><path d=" M 324.664 180.538 C 324.364 183.938 322.464 203.233 335.362 210.832 C 340.56 213.931 348.559 215.431 354.657 211.832 C 364.355 206.133 362.856 189.936 361.956 181.138 C 361.456 175.639 360.856 169.941 356.757 164.142 C 355.857 162.942 348.259 152.244 339.761 153.444 C 329.863 154.944 325.464 171.54 324.664 180.538 Z " fill="rgb(199,178,153)" vector-effect="non-scaling-stroke" stroke-width="1.1" stroke="rgb(35,31,32)" stroke-linejoin="miter" stroke-linecap="butt" stroke-miterlimit="10"/><path d=" M 340.552 170.241 C 340.461 167.041 340.187 162.542 339.183 157.343 C 338.362 156.244 336.994 154.844 335.078 153.444 C 334.075 152.744 329.878 149.845 321.485 149.845 C 317.653 149.845 316.467 150.445 306.523 152.344 C 299.225 153.744 298.039 153.744 295.484 154.344 C 289.919 155.544 281.8 158.243 272.038 165.242 C 271.856 165.242 271.582 165.242 271.4 165.342 C 261.547 158.343 253.519 155.544 247.863 154.344 C 245.217 153.744 244.122 153.744 236.824 152.344 C 226.88 150.445 225.694 149.845 221.862 149.845 C 213.56 149.945 209.272 152.744 208.269 153.444 C 206.353 154.744 204.985 156.244 204.163 157.343 C 203.16 162.542 202.886 166.941 202.795 170.241 C 202.521 178.939 202.339 186.237 206.079 192.636 C 206.992 194.135 207.904 195.235 209.546 198.235 C 211.553 201.934 212.648 204.933 213.469 207.033 C 217.301 217.33 219.308 222.529 223.048 226.628 C 224.416 228.128 226.697 230.228 230.164 232.027 C 234.269 232.827 239.469 233.427 245.491 233.027 C 257.259 232.227 266.382 227.928 271.765 224.729 C 277.147 227.928 286.27 232.227 298.039 233.027 C 303.969 233.427 309.169 232.827 313.365 232.027 C 316.832 230.228 319.022 228.128 320.481 226.628 C 324.222 222.529 326.229 217.33 330.06 207.033 C 330.881 204.833 331.885 201.934 333.983 198.235 C 335.534 195.235 336.538 194.135 337.45 192.636 C 341.008 186.237 340.734 178.939 340.552 170.241 Z " fill="rgb(199,178,153)" vector-effect="non-scaling-stroke" stroke-width="1.1" stroke="rgb(35,31,32)" stroke-linejoin="miter" stroke-linecap="butt" stroke-miterlimit="10"/></g><g><path d=" M 178.11 198.334 C 175.763 202.033 173.081 207.332 171.292 214.13 C 169.616 220.629 169.281 226.228 169.504 230.427 C 167.939 234.326 166.263 239.125 165.145 244.624 C 163.916 250.722 163.581 256.221 163.581 260.72 C 165.257 266.119 170.175 270.318 176.21 271.518 C 182.581 272.818 189.175 270.718 193.31 266.219 C 195.881 262.52 198.898 257.521 201.245 251.122 C 203.145 245.724 204.04 240.825 204.487 236.825 C 206.387 233.626 208.287 229.427 209.851 224.428 C 211.975 217.33 209.292 210.631 209.181 206.032 C 208.398 204.932 205.381 196.634 193.645 195.434 C 185.822 194.534 180.122 197.234 178.11 198.334 Z " fill="rgb(199,178,153)" vector-effect="non-scaling-stroke" stroke-width="1.1" stroke="rgb(35,31,32)" stroke-linejoin="miter" stroke-linecap="butt" stroke-miterlimit="10"/><path d=" M 170.957 246.524 C 169.169 248.024 166.822 250.323 164.698 253.523 C 163.692 254.922 161.569 258.321 160.116 263.12 C 158.886 267.22 159.445 268.219 158.104 277.717 C 157.434 282.716 157.322 282.516 156.875 286.016 C 156.092 292.214 156.092 296.813 156.204 301.412 C 156.204 306.911 156.539 314.21 157.657 322.908 C 157.434 329.606 157.322 336.305 157.098 343.103 C 157.098 344.703 157.21 349.402 160.898 353.801 C 163.804 357.3 167.492 359 169.169 359.6 C 169.616 359.8 171.516 360.7 173.863 360.2 C 176.21 359.7 177.439 358.2 177.663 357.9 C 177.775 357 177.998 355.601 177.775 353.901 C 177.551 351.102 176.657 349.802 176.098 346.903 C 175.875 345.603 175.651 343.803 175.763 341.504 C 178.669 332.906 181.575 324.307 184.481 315.709 C 187.387 311.71 191.41 305.311 193.198 296.613 C 194.316 291.614 194.316 287.215 194.092 283.716 C 194.539 281.417 196.216 272.718 195.881 264.22 C 195.769 260.321 195.21 256.422 195.21 256.422 C 194.875 254.022 194.428 252.023 194.092 250.323 C 193.422 249.523 189.398 244.724 182.022 244.025 C 176.322 243.425 172.186 245.724 170.957 246.524 Z " fill="rgb(199,178,153)" vector-effect="non-scaling-stroke" stroke-width="1.1" stroke="rgb(35,31,32)" stroke-linejoin="miter" stroke-linecap="butt" stroke-miterlimit="10"/><path d=" M 158.551 347.502 C 158.216 348.702 157.881 350.502 157.881 352.801 C 157.881 354.501 158.104 355.801 158.216 356.301 C 158.886 360.7 158.551 363.999 158.663 368.198 C 158.775 371.197 159.334 375.396 161.01 380.695 C 162.128 381.595 166.151 384.495 171.739 384.395 C 178.334 384.195 184.369 379.796 186.828 373.297 C 186.939 370.598 186.828 367.198 185.598 363.299 C 182.804 354.001 176.098 348.202 172.857 345.903 C 172.41 345.603 168.386 342.903 163.581 344.303 C 160.675 345.003 159.11 346.803 158.551 347.502 Z " fill="rgb(199,178,153)" vector-effect="non-scaling-stroke" stroke-width="1" stroke="rgb(35,31,32)" stroke-linejoin="miter" stroke-linecap="butt" stroke-miterlimit="10"/></g></g><g><g><path d=" M 217.587 180.538 C 217.887 183.938 219.786 203.233 206.889 210.832 C 201.69 213.931 193.692 215.431 187.593 211.832 C 177.895 206.133 179.395 189.936 180.295 181.138 C 180.795 175.639 181.394 169.941 185.494 164.142 C 186.393 162.942 193.992 152.244 202.49 153.444 C 212.288 154.944 216.687 171.54 217.587 180.538 Z " fill="rgb(199,178,153)" vector-effect="non-scaling-stroke" stroke-width="1.1" stroke="rgb(35,31,32)" stroke-linejoin="miter" stroke-linecap="butt" stroke-miterlimit="10"/><path d=" M 324.664 180.538 C 324.364 183.938 322.464 203.233 335.362 210.832 C 340.56 213.931 348.559 215.431 354.657 211.832 C 364.355 206.133 362.856 189.936 361.956 181.138 C 361.456 175.639 360.856 169.941 356.757 164.142 C 355.857 162.942 348.259 152.244 339.761 153.444 C 329.863 154.944 325.464 171.54 324.664 180.538 Z " fill="rgb(199,178,153)" vector-effect="non-scaling-stroke" stroke-width="1.1" stroke="rgb(35,31,32)" stroke-linejoin="miter" stroke-linecap="butt" stroke-miterlimit="10"/><path d=" M 347.159 170.241 C 347.059 167.041 346.759 162.542 345.659 157.343 C 344.76 156.244 343.26 154.844 341.16 153.444 C 340.061 152.744 335.462 149.845 326.263 149.845 C 322.064 149.845 320.765 150.445 309.867 152.344 C 301.869 153.744 300.569 153.744 297.77 154.344 C 291.671 155.544 282.773 158.243 272.075 165.242 C 271.875 165.242 271.575 165.242 271.375 165.342 C 260.578 158.343 251.779 155.544 245.581 154.344 C 242.681 153.744 241.482 153.744 233.483 152.344 C 222.586 150.445 221.286 149.845 217.087 149.845 C 207.989 149.945 203.29 152.744 202.19 153.444 C 200.09 154.744 198.591 156.244 197.691 157.343 C 196.591 162.542 196.291 166.941 196.191 170.241 C 195.891 178.939 195.691 186.237 199.791 192.636 C 200.79 194.135 201.79 195.235 203.59 198.235 C 205.789 201.934 206.989 204.933 207.889 207.033 C 212.088 217.33 214.287 222.529 218.387 226.628 C 219.886 228.128 222.386 230.228 226.185 232.027 C 230.684 232.827 236.383 233.427 242.981 233.027 C 255.879 232.227 265.876 227.928 271.775 224.729 C 277.674 227.928 287.672 232.227 300.569 233.027 C 307.068 233.427 312.766 232.827 317.365 232.027 C 321.165 230.228 323.564 228.128 325.164 226.628 C 329.263 222.529 331.462 217.33 335.661 207.033 C 336.561 204.833 337.661 201.934 339.961 198.235 C 341.66 195.235 342.76 194.135 343.76 192.636 C 347.659 186.237 347.359 178.939 347.159 170.241 Z " fill="rgb(199,178,153)" vector-effect="non-scaling-stroke" stroke-width="1.1" stroke="rgb(35,31,32)" stroke-linejoin="miter" stroke-linecap="butt" stroke-miterlimit="10"/></g><g><path d=" M 178.11 201.334 C 175.763 205.033 173.081 210.332 171.292 217.13 C 169.616 223.629 169.281 229.228 169.504 233.427 C 167.939 237.326 166.263 242.125 165.145 247.624 C 163.916 253.722 163.581 259.221 163.581 263.72 C 165.257 269.119 170.175 273.318 176.21 274.518 C 182.581 275.818 189.175 273.718 193.31 269.219 C 195.881 265.52 198.898 260.521 201.245 254.122 C 203.145 248.724 204.04 243.825 204.487 239.825 C 206.387 236.626 208.287 232.427 209.851 227.428 C 211.975 220.33 209.292 213.631 209.181 209.032 C 208.398 207.932 205.381 199.634 193.645 198.434 C 185.822 197.534 180.122 200.234 178.11 201.334 Z " fill="rgb(199,178,153)" vector-effect="non-scaling-stroke" stroke-width="1.1" stroke="rgb(35,31,32)" stroke-linejoin="miter" stroke-linecap="butt" stroke-miterlimit="10"/><path d=" M 170.957 246.524 C 169.169 248.024 166.822 250.323 164.698 253.523 C 163.692 254.922 161.569 258.321 160.116 263.12 C 158.886 267.22 159.445 268.219 158.104 277.717 C 157.434 282.716 157.322 282.516 156.875 286.016 C 156.092 292.214 156.092 296.813 156.204 301.412 C 156.204 306.911 156.539 314.21 157.657 322.908 C 157.434 329.606 157.322 336.305 157.098 343.103 C 157.098 344.703 157.21 349.402 160.898 353.801 C 163.804 357.3 167.492 359 169.169 359.6 C 169.616 359.8 171.516 360.7 173.863 360.2 C 176.21 359.7 177.439 358.2 177.663 357.9 C 177.775 357 177.998 355.601 177.775 353.901 C 177.551 351.102 176.657 349.802 176.098 346.903 C 175.875 345.603 175.651 343.803 175.763 341.504 C 178.669 332.906 181.575 324.307 184.481 315.709 C 187.387 311.71 191.41 305.311 193.198 296.613 C 194.316 291.614 194.316 287.215 194.092 283.716 C 194.539 281.417 196.216 272.718 195.881 264.22 C 195.769 260.321 195.21 256.422 195.21 256.422 C 194.875 254.022 194.428 252.023 194.092 250.323 C 193.422 249.523 189.398 244.724 182.022 244.025 C 176.322 243.425 172.186 245.724 170.957 246.524 Z " fill="rgb(199,178,153)" vector-effect="non-scaling-stroke" stroke-width="1.1" stroke="rgb(35,31,32)" stroke-linejoin="miter" stroke-linecap="butt" stroke-miterlimit="10"/><path d=" M 158.551 347.502 C 158.216 348.702 157.881 350.502 157.881 352.801 C 157.881 354.501 158.104 355.801 158.216 356.301 C 158.886 360.7 158.551 363.999 158.663 368.198 C 158.775 371.197 159.334 375.396 161.01 380.695 C 162.128 381.595 166.151 384.495 171.739 384.395 C 178.334 384.195 184.369 379.796 186.828 373.297 C 186.939 370.598 186.828 367.198 185.598 363.299 C 182.804 354.001 176.098 348.202 172.857 345.903 C 172.41 345.603 168.386 342.903 163.581 344.303 C 160.675 345.003 159.11 346.803 158.551 347.502 Z " fill="rgb(199,178,153)" vector-effect="non-scaling-stroke" stroke-width="0.2" stroke="rgb(35,31,32)" stroke-linejoin="miter" stroke-linecap="butt" stroke-miterlimit="10"/></g></g></g><g><path d=" M 211.988 364.555 C 207.789 375.288 203.59 389.289 201.39 405.716 C 198.491 427.837 200.39 446.597 202.89 460.131 C 202.39 462.558 201.99 465.264 201.69 468.158 C 201.29 471.985 201.29 475.438 201.39 478.518 C 200.29 482.718 199.191 487.198 198.291 491.959 C 197.591 495.599 196.991 499.239 196.491 502.599 C 192.892 515.293 198.591 526.586 205.789 528.92 C 213.788 531.44 227.984 524.066 231.384 508.479 C 231.584 505.306 231.784 502.132 231.984 499.052 C 233.983 497.279 236.883 494.199 238.582 489.532 C 239.182 487.758 239.582 486.172 239.782 484.772 C 241.382 482.718 242.181 480.945 242.581 479.638 C 243.181 477.865 242.981 477.211 243.881 474.505 C 244.481 472.825 244.681 472.545 245.081 471.051 C 245.581 469.278 245.581 468.438 245.781 467.038 C 246.181 464.424 246.78 463.584 247.78 460.691 C 248.38 459.011 248.98 456.491 249.48 453.317 C 253.979 445.01 258.678 434.557 262.477 422.05 C 266.476 408.889 268.076 395.542 268.776 385.929 C 249.78 370.528 231.384 351.488 219.986 356.248 C 217.587 357.088 214.487 359.235 211.988 364.555 Z " fill="rgb(199,178,153)" vector-effect="non-scaling-stroke" stroke-width="1" stroke="rgb(35,31,32)" stroke-linejoin="miter" stroke-linecap="butt" stroke-miterlimit="10"/><path d=" M 202.99 481.785 C 201.69 484.398 200.39 487.105 198.991 489.719 C 194.492 497.185 189.793 507.639 189.393 520.426 C 189.293 524.16 189.593 526.493 190.193 533.773 C 190.792 541.613 191.592 552.72 192.192 566.254 C 192.992 577.641 193.892 589.122 194.692 600.509 C 193.892 601.535 193.292 602.562 192.892 603.495 C 189.893 610.589 193.992 617.776 195.191 619.642 C 195.591 620.109 198.791 623.003 203.49 622.723 C 206.689 622.536 208.789 620.949 209.488 620.296 C 210.688 619.362 213.288 617.029 214.687 613.109 C 216.287 608.535 215.187 604.615 214.787 603.215 C 215.387 597.615 215.987 592.015 216.587 586.415 C 216.687 586.135 220.886 569.054 220.986 568.774 C 220.986 568.681 223.086 560.467 223.086 560.374 C 226.285 555.334 229.784 548.147 231.884 539.093 C 232.783 534.893 233.283 530.973 233.383 527.52 C 232.983 522.666 232.683 517.719 232.484 512.586 C 232.084 502.599 232.184 493.079 232.583 484.212 C 232.983 476.465 226.485 469.931 218.487 469.558 C 210.788 469.278 203.99 474.598 202.99 481.785 Z " fill="rgb(199,178,153)" vector-effect="non-scaling-stroke" stroke-width="1" stroke="rgb(35,31,32)" stroke-linejoin="miter" stroke-linecap="butt" stroke-miterlimit="10"/><path d=" M 220.314 628.713 C 219.973 627.016 219.29 624.256 217.355 621.073 C 216.786 618.102 216.217 615.13 215.648 612.265 C 213.03 613.432 206.2 616.085 197.891 614.387 C 194.704 613.751 192.2 612.583 190.265 611.522 C 190.151 612.477 190.037 613.326 189.924 614.281 C 187.989 616.191 185.94 618.526 183.891 621.391 C 181.045 625.318 179.11 629.138 177.744 632.321 C 175.923 635.823 176.492 638.052 176.834 639.007 C 178.883 644.101 189.127 646.754 202.103 643.995 C 203.241 643.252 204.265 642.615 205.29 642.084 C 207.908 641.448 210.753 640.599 213.713 639.431 C 215.078 638.901 216.444 638.37 217.696 637.734 C 218.266 637.203 219.176 636.248 219.745 634.974 C 220.997 632.746 220.656 630.73 220.314 628.713 Z " fill="rgb(152,0,0)" vector-effect="non-scaling-stroke" stroke-width="1" stroke="rgb(35,31,32)" stroke-linejoin="miter" stroke-linecap="butt" stroke-miterlimit="10"/><path d=" M 193.224 642.297 C 189.924 640.811 186.85 639.219 183.777 637.521 C 181.387 636.142 179.224 634.55 177.062 633.064 C 175.24 633.595 172.964 634.338 170.687 635.505 C 166.248 637.84 163.403 640.811 161.809 642.827 C 163.061 644.843 164.882 647.072 167.5 649.088 C 176.948 656.198 189.013 654.076 191.289 653.651 C 193.338 651.423 195.842 648.876 199.143 646.329 C 199.826 645.799 200.509 645.374 201.078 644.95 C 198.46 644.207 195.842 643.464 193.224 642.297 Z " fill="rgb(152,0,0)" vector-effect="non-scaling-stroke" stroke-width="1" stroke="rgb(35,31,32)" stroke-linejoin="miter" stroke-linecap="butt" stroke-miterlimit="10"/><path d=" M 164.313 641.235 C 163.63 641.235 158.85 641.235 156.118 644.737 C 153.045 648.451 154.411 653.757 156.687 656.198 C 160.102 659.806 163.175 661.929 171.598 661.186 C 180.021 660.443 183.322 660.125 184.346 659.063 C 185.257 658.002 186.964 655.88 188.444 655.349 C 189.241 655.031 189.924 655.031 190.265 654.606 C 190.72 653.864 190.037 652.696 189.81 652.378 C 187.647 648.982 178.2 650.786 170.574 646.647 C 167.614 645.056 165.679 642.933 164.313 641.235 Z " fill="rgb(152,0,0)" vector-effect="non-scaling-stroke" stroke-width="1" stroke="rgb(35,31,32)" stroke-linejoin="miter" stroke-linecap="butt" stroke-miterlimit="10"/><path d=" M 332.262 364.555 C 336.461 375.288 340.66 389.289 342.86 405.716 C 345.759 427.837 343.86 446.597 341.36 460.131 C 341.86 462.558 342.26 465.264 342.56 468.158 C 342.96 471.985 342.96 475.438 342.86 478.518 C 343.96 482.718 345.059 487.198 345.959 491.959 C 346.659 495.599 347.259 499.239 347.759 502.599 C 351.358 515.293 345.659 526.586 338.461 528.92 C 330.463 531.44 316.266 524.066 312.866 508.479 C 312.666 505.306 312.466 502.132 312.266 499.052 C 310.267 497.279 307.368 494.199 305.668 489.532 C 305.068 487.758 304.668 486.172 304.468 484.772 C 302.868 482.718 302.069 480.945 301.669 479.638 C 301.069 477.865 301.269 477.211 300.369 474.505 C 299.769 472.825 299.569 472.545 299.169 471.051 C 298.669 469.278 298.669 468.438 298.469 467.038 C 298.07 464.424 297.47 463.584 296.47 460.691 C 295.87 459.011 295.27 456.491 294.77 453.317 C 290.271 445.01 285.572 434.557 281.773 422.05 C 277.774 408.889 276.174 395.542 275.474 385.929 C 294.47 370.528 312.866 351.488 324.264 356.248 C 326.663 357.088 329.763 359.235 332.262 364.555 Z " fill="rgb(199,178,153)" vector-effect="non-scaling-stroke" stroke-width="1" stroke="rgb(35,31,32)" stroke-linejoin="miter" stroke-linecap="butt" stroke-miterlimit="10"/><path d=" M 340.96 481.785 C 342.26 484.398 343.56 487.105 344.959 489.719 C 349.459 497.185 354.158 507.639 354.557 520.426 C 354.657 524.16 354.357 526.493 353.758 533.773 C 353.158 541.613 352.358 552.72 351.758 566.254 C 350.958 577.641 350.058 589.122 349.259 600.509 C 350.058 601.535 350.658 602.562 351.058 603.495 C 354.058 610.589 349.958 617.776 348.759 619.642 C 348.359 620.109 345.159 623.003 340.46 622.723 C 337.261 622.536 335.162 620.949 334.462 620.296 C 333.262 619.362 330.663 617.029 329.263 613.109 C 327.663 608.535 328.763 604.615 329.163 603.215 C 328.563 597.615 327.963 592.015 327.363 586.415 C 327.263 586.135 323.064 569.054 322.964 568.774 C 322.964 568.681 320.865 560.467 320.865 560.374 C 317.665 555.334 314.166 548.147 312.067 539.093 C 311.167 534.893 310.667 530.973 310.567 527.52 C 310.967 522.666 311.267 517.719 311.467 512.586 C 311.867 502.599 311.767 493.079 311.367 484.212 C 310.967 476.465 317.465 469.931 325.464 469.558 C 333.162 469.278 339.961 474.598 340.96 481.785 Z " fill="rgb(199,178,153)" vector-effect="non-scaling-stroke" stroke-width="1" stroke="rgb(35,31,32)" stroke-linejoin="miter" stroke-linecap="butt" stroke-miterlimit="10"/><path d=" M 324.536 628.713 C 324.877 627.016 325.56 624.256 327.495 621.073 C 328.064 618.102 328.633 615.13 329.203 612.265 C 331.821 613.432 338.65 616.085 346.959 614.387 C 350.146 613.751 352.65 612.583 354.585 611.522 C 354.699 612.477 354.813 613.326 354.927 614.281 C 356.862 616.191 358.91 618.526 360.959 621.391 C 363.805 625.318 365.74 629.138 367.106 632.321 C 368.927 635.823 368.358 638.052 368.016 639.007 C 365.967 644.101 355.723 646.754 342.748 643.995 C 341.609 643.252 340.585 642.615 339.56 642.084 C 336.943 641.448 334.097 640.599 331.138 639.431 C 329.772 638.901 328.406 638.37 327.154 637.734 C 326.585 637.203 325.674 636.248 325.105 634.974 C 323.853 632.746 324.194 630.73 324.536 628.713 Z " fill="rgb(152,0,0)" vector-effect="non-scaling-stroke" stroke-width="1" stroke="rgb(35,31,32)" stroke-linejoin="miter" stroke-linecap="butt" stroke-miterlimit="10"/><path d=" M 351.626 642.297 C 354.927 640.811 358 639.219 361.073 637.521 C 363.463 636.142 365.626 634.55 367.789 633.064 C 369.61 633.595 371.886 634.338 374.163 635.505 C 378.602 637.84 381.447 640.811 383.041 642.827 C 381.789 644.843 379.968 647.072 377.35 649.088 C 367.902 656.198 355.837 654.076 353.561 653.651 C 351.512 651.423 349.008 648.876 345.707 646.329 C 345.024 645.799 344.341 645.374 343.772 644.95 C 346.504 644.207 349.008 643.464 351.626 642.297 Z " fill="rgb(152,0,0)" vector-effect="non-scaling-stroke" stroke-width="1" stroke="rgb(35,31,32)" stroke-linejoin="miter" stroke-linecap="butt" stroke-miterlimit="10"/><path d=" M 380.537 641.235 C 381.22 641.235 386 641.235 388.732 644.737 C 391.805 648.451 390.439 653.757 388.163 656.198 C 384.748 659.806 381.675 661.929 373.252 661.186 C 364.829 660.443 361.528 660.125 360.504 659.063 C 359.593 658.002 357.886 655.88 356.406 655.349 C 355.61 655.031 354.927 655.031 354.585 654.606 C 354.13 653.864 354.813 652.696 355.04 652.378 C 357.203 648.982 366.65 650.786 374.277 646.647 C 377.236 645.056 379.285 642.933 380.537 641.235 Z " fill="rgb(152,0,0)" vector-effect="non-scaling-stroke" stroke-width="1" stroke="rgb(35,31,32)" stroke-linejoin="miter" stroke-linecap="butt" stroke-miterlimit="10"/></g><g><path d=" M 163.597 384.528 C 164.697 386.127 165.896 387.827 167.396 389.527 C 168.296 390.526 169.096 391.526 169.996 392.426 C 171.095 392.526 172.195 392.726 173.295 392.826 C 174.395 392.526 175.494 392.226 176.594 391.926 L 163.597 384.528 Z " fill="rgb(199,178,153)" vector-effect="non-scaling-stroke" stroke-width="1" stroke="rgb(35,31,32)" stroke-linejoin="miter" stroke-linecap="butt" stroke-miterlimit="10"/><path d=" M 163.997 384.428 C 164.897 385.727 166.496 387.627 168.896 389.327 C 171.595 391.226 174.195 392.126 175.794 392.526 C 176.294 392.726 176.794 392.726 177.094 392.726 C 179.394 392.526 180.593 390.027 180.693 389.827 C 175.094 387.927 169.596 386.127 163.997 384.428 Z " fill="rgb(199,178,153)" vector-effect="non-scaling-stroke" stroke-width="1" stroke="rgb(35,31,32)" stroke-linejoin="miter" stroke-linecap="butt" stroke-miterlimit="10"/><path d=" M 163.097 377.529 C 163.097 377.529 155.799 381.128 163.897 384.928 C 167.596 386.727 171.195 388.627 174.895 390.426 C 176.994 391.026 178.994 391.526 181.093 392.126 C 181.493 392.026 182.193 391.626 182.893 390.826 C 183.493 390.127 183.593 389.427 183.693 389.027 C 183.593 388.427 183.393 387.627 182.993 386.727 C 182.393 385.528 181.593 384.728 181.093 384.228 C 174.995 382.028 169.096 379.829 163.097 377.529 Z " fill="rgb(199,178,153)" vector-effect="non-scaling-stroke" stroke-width="1" stroke="rgb(35,31,32)" stroke-linejoin="miter" stroke-linecap="butt" stroke-miterlimit="10"/><path d=" M 164.698 373.23 C 164.698 373.23 159.781 381.828 169.057 381.828 L 173.081 383.628 C 173.081 383.628 183.251 388.027 185.487 387.327 C 187.722 386.627 188.728 385.428 188.728 384.728 C 188.728 384.028 187.163 375.83 187.163 375.83 C 187.163 375.83 185.71 373.33 184.034 372.23 C 182.357 371.131 178.334 369.931 178.334 369.931 C 178.334 369.931 176.098 369.631 175.651 371.131 C 175.204 372.63 176.545 374.93 176.545 374.93 C 176.545 374.93 174.31 373.03 173.304 372.83 C 172.298 372.63 170.957 372.83 170.957 372.83 L 168.386 373.43 C 168.386 373.43 165.481 372.53 164.698 373.23 Z " fill="rgb(199,178,153)" vector-effect="non-scaling-stroke" stroke-width="1" stroke="rgb(35,31,32)" stroke-linejoin="miter" stroke-linecap="butt" stroke-miterlimit="10"/><path d=" M 180.904 370.531 C 177.439 369.431 176.434 368.431 176.322 367.631 C 176.21 367.331 176.098 365.832 176.098 365.832 C 175.316 365.432 173.639 364.532 172.634 362.532 C 171.628 360.733 171.851 359.133 171.963 357.933 C 172.41 353.734 174.981 350.635 176.434 349.135 C 178.781 350.335 182.469 352.635 185.487 356.634 C 187.051 358.633 187.945 360.633 188.616 362.232 C 189.51 364.032 190.292 365.732 191.187 367.531 L 193.869 371.83 C 194.092 372.23 194.428 372.73 194.651 373.23 C 194.987 374.03 195.21 374.83 195.434 375.53 C 195.545 377.329 195.769 379.229 195.881 381.028 C 195.881 381.228 195.992 382.828 194.651 384.028 C 193.422 385.128 191.522 385.328 189.845 384.628 C 189.398 384.328 188.839 383.828 188.281 383.228 C 187.722 382.628 187.163 381.928 186.604 381.028 C 185.71 379.529 185.263 378.029 185.039 377.129 C 184.928 376.629 184.928 376.13 184.816 375.53 C 184.257 374.93 183.587 374.13 183.028 373.43 C 182.134 372.33 181.463 371.431 180.904 370.531 Z " fill="rgb(199,178,153)" vector-effect="non-scaling-stroke" stroke-width="1" stroke="rgb(35,31,32)" stroke-linejoin="miter" stroke-linecap="butt" stroke-miterlimit="10"/><path d=" M 378.449 385.528 C 377.231 387.127 375.902 388.827 374.24 390.527 C 373.243 391.526 372.357 392.526 371.36 393.426 C 370.141 393.526 368.923 393.726 367.704 393.826 C 366.486 393.526 365.267 393.226 364.049 392.926 L 378.449 385.528 Z " fill="rgb(199,178,153)" vector-effect="non-scaling-stroke" stroke-width="1" stroke="rgb(35,31,32)" stroke-linejoin="miter" stroke-linecap="butt" stroke-miterlimit="10"/><path d=" M 364.268 198.667 C 366.594 202.366 369.253 207.665 371.025 214.464 C 372.687 220.962 373.019 226.561 372.798 230.76 C 374.349 234.659 376.01 239.458 377.118 244.957 C 378.337 251.056 378.669 256.555 378.669 261.054 C 377.007 266.453 372.133 270.652 366.151 271.851 C 359.837 273.151 353.302 271.052 349.203 266.553 C 346.655 262.853 343.664 257.854 341.338 251.456 C 339.455 246.057 338.568 241.158 338.125 237.159 C 336.242 233.959 334.359 229.76 332.808 224.761 C 330.703 217.663 333.362 210.964 333.473 206.365 C 334.248 205.266 337.239 196.967 348.871 195.768 C 356.514 194.868 362.274 197.567 364.268 198.667 Z " fill="rgb(199,178,153)" vector-effect="non-scaling-stroke" stroke-width="1.1" stroke="rgb(35,31,32)" stroke-linejoin="miter" stroke-linecap="butt" stroke-miterlimit="10"/><path d=" M 378.006 385.428 C 377.009 386.727 375.237 388.627 372.578 390.327 C 369.587 392.226 366.707 393.126 364.935 393.526 C 364.381 393.726 363.827 393.726 363.495 393.726 C 360.947 393.526 359.618 391.027 359.507 390.827 C 365.6 388.927 371.803 387.127 378.006 385.428 Z " fill="rgb(199,178,153)" vector-effect="non-scaling-stroke" stroke-width="1" stroke="rgb(35,31,32)" stroke-linejoin="miter" stroke-linecap="butt" stroke-miterlimit="10"/><path d=" M 371.358 246.857 C 373.13 248.357 375.456 250.657 377.561 253.856 C 378.558 255.256 380.663 258.655 382.103 263.454 C 383.321 267.553 382.768 268.553 384.097 278.051 C 384.762 283.05 384.872 282.85 385.315 286.349 C 386.091 292.548 386.091 297.147 385.98 301.746 C 385.98 307.244 385.648 314.543 384.54 323.241 C 384.762 329.94 384.872 336.638 385.094 343.437 C 385.094 345.036 384.983 349.735 381.328 354.134 C 378.447 357.634 374.792 359.333 373.13 359.933 C 372.687 360.133 370.804 361.033 368.478 360.533 C 366.151 360.033 364.933 358.533 364.711 358.234 C 364.601 357.334 364.379 355.934 364.601 354.234 C 364.822 351.435 365.708 350.135 366.262 347.236 C 366.484 345.936 366.705 344.137 366.594 341.837 C 363.714 333.239 360.834 324.641 357.954 316.043 C 355.074 312.043 351.086 305.645 349.314 296.947 C 348.206 291.948 348.206 287.549 348.427 284.049 C 347.984 281.75 346.323 273.052 346.655 264.554 C 346.766 260.654 347.32 256.755 347.32 256.755 C 347.652 254.356 348.095 252.356 348.427 250.657 C 349.092 249.857 353.08 245.058 360.391 244.358 C 366.041 243.758 370.139 246.058 371.358 246.857 Z " fill="rgb(199,178,153)" vector-effect="non-scaling-stroke" stroke-width="1.1" stroke="rgb(35,31,32)" stroke-linejoin="miter" stroke-linecap="butt" stroke-miterlimit="10"/><path d=" M 384.32 347.836 C 384.653 349.036 384.985 350.835 384.985 353.135 C 384.985 354.834 384.764 356.134 384.653 356.634 C 383.988 361.033 384.32 364.332 384.21 368.531 C 384.099 371.531 383.545 375.73 381.883 381.029 C 380.776 381.928 376.788 384.828 371.249 384.728 C 364.713 384.528 358.731 380.129 356.294 373.63 C 356.184 370.931 356.294 367.532 357.513 363.632 C 360.282 354.334 366.929 348.536 370.141 346.236 C 370.584 345.936 374.572 343.237 379.336 344.636 C 382.216 345.336 383.767 347.136 384.32 347.836 Z " fill="rgb(199,178,153)" vector-effect="non-scaling-stroke" stroke-width="1" stroke="rgb(35,31,32)" stroke-linejoin="miter" stroke-linecap="butt" stroke-miterlimit="10"/><path d=" M 379.003 378.529 C 379.003 378.529 387.09 382.128 378.117 385.928 C 374.018 387.727 370.031 389.627 365.932 391.426 C 363.606 392.026 361.39 392.526 359.064 393.126 C 358.621 393.026 357.845 392.626 357.07 391.826 C 356.405 391.127 356.294 390.427 356.184 390.027 C 356.294 389.427 356.516 388.627 356.959 387.727 C 357.624 386.528 358.51 385.728 359.064 385.228 C 365.71 383.028 372.357 380.829 379.003 378.529 Z " fill="rgb(199,178,153)" vector-effect="non-scaling-stroke" stroke-width="1" stroke="rgb(35,31,32)" stroke-linejoin="miter" stroke-linecap="butt" stroke-miterlimit="10"/><path d=" M 378.117 374.23 C 378.117 374.23 382.991 382.828 373.797 382.828 L 369.809 384.628 C 369.809 384.628 359.728 389.027 357.513 388.327 C 355.297 387.627 354.3 386.428 354.3 385.728 C 354.3 385.028 355.851 376.83 355.851 376.83 C 355.851 376.83 357.291 374.33 358.953 373.23 C 360.615 372.131 364.603 370.931 364.603 370.931 C 364.603 370.931 366.818 370.631 367.261 372.131 C 367.704 373.63 366.375 375.93 366.375 375.93 C 366.375 375.93 368.59 374.03 369.587 373.83 C 370.584 373.63 371.914 373.83 371.914 373.83 L 374.462 374.43 C 374.572 374.43 377.452 373.53 378.117 374.23 Z " fill="rgb(199,178,153)" vector-effect="non-scaling-stroke" stroke-width="1" stroke="rgb(35,31,32)" stroke-linejoin="miter" stroke-linecap="butt" stroke-miterlimit="10"/><path d=" M 362.055 371.531 C 365.489 370.431 366.486 369.431 366.596 368.631 C 366.707 368.331 366.818 366.832 366.818 366.832 C 367.593 366.432 369.255 365.532 370.252 363.532 C 371.249 361.733 371.027 360.133 370.917 358.933 C 370.474 354.734 367.926 351.635 366.486 350.135 C 364.159 351.335 360.504 353.635 357.513 357.634 C 355.962 359.633 355.076 361.633 354.411 363.232 C 353.525 365.032 352.75 366.732 351.863 368.531 L 349.205 372.83 C 348.983 373.23 348.651 373.73 348.429 374.23 C 348.097 375.03 347.876 375.83 347.654 376.53 C 347.543 378.329 347.322 380.229 347.211 382.028 C 347.211 382.228 347.1 383.828 348.429 385.028 C 349.648 386.128 351.531 386.328 353.193 385.628 C 353.636 385.328 354.19 384.828 354.744 384.228 C 355.297 383.628 355.851 382.928 356.405 382.028 C 357.291 380.529 357.735 379.029 357.956 378.129 C 358.067 377.629 358.067 377.13 358.178 376.53 C 358.731 375.93 359.396 375.13 359.95 374.43 C 360.947 373.33 361.501 372.431 362.055 371.531 Z " fill="rgb(199,178,153)" vector-effect="non-scaling-stroke" stroke-width="1" stroke="rgb(35,31,32)" stroke-linejoin="miter" stroke-linecap="butt" stroke-miterlimit="10"/></g></g></svg>